<svg width="175" height="278" fill="none" xmlns="http://www.w3.org/2000/svg"><path d="M84.759 277.986a2.843 2.843 0 002.865-2.862v-1.464a2.842 2.842 0 00-2.865-2.862 2.842 2.842 0 00-2.865 2.862v1.464a2.843 2.843 0 002.865 2.862zm0-15.907a2.843 2.843 0 002.865-2.862v-1.465a2.843 2.843 0 00-2.865-2.862 2.843 2.843 0 00-2.865 2.862v1.465a2.843 2.843 0 002.865 2.862zm0-15.908a2.842 2.842 0 002.865-2.862v-1.464a2.843 2.843 0 00-2.865-2.862 2.843 2.843 0 00-2.865 2.862v1.464a2.842 2.842 0 002.865 2.862zm0-15.907a2.843 2.843 0 002.865-2.862v-1.464a2.842 2.842 0 00-2.865-2.862 2.842 2.842 0 00-2.865 2.862v1.464a2.843 2.843 0 002.865 2.862zm0-15.907a2.843 2.843 0 002.865-2.862v-1.465a2.843 2.843 0 00-2.865-2.862 2.843 2.843 0 00-2.865 2.862v1.465c0 1.531 1.265 2.862 2.865 2.862z" fill="#FF984E"/><path d="M27.988 151.393h57.837v44.327l-57.838-44.327z" fill="#FFCCA8"/><path d="M87.49 174.955c48.243 0 87.356-39.07 87.356-87.258C174.846 39.51 135.733.44 87.491.44 39.248.44.135 39.51.135 87.698c0 48.187 39.113 87.257 87.356 87.257z" fill="#FF984E"/><path d="M86.891 154.388c-36.764 0-66.566-29.769-66.566-66.49 0-36.723 29.802-66.492 66.566-66.492s66.566 29.77 66.566 66.491c0 36.722-29.802 66.491-66.566 66.491z" fill="#53576B"/><path d="M87.49 156.718c-38.382 0-69.498-31.08-69.498-69.42 0-38.339 31.116-69.42 69.498-69.42 38.383 0 69.499 31.081 69.499 69.42 0 38.34-31.116 69.42-69.499 69.42z" fill="url(#paint0_linear)"/><path stroke="#252525" stroke-width="3" stroke-linecap="round" stroke-linejoin="round" d="M49.5 57.749h75v52.5h-75z"/><path d="M49.5 57.75L87 91.5l37.5-33.75m-75 52.5l26.25-30" stroke="#252525" stroke-width="4"/><path clip-rule="evenodd" d="M124.5 110.25l-26.25-30 26.25 30z" stroke="#252525" stroke-width="4"/><path d="M87.49 157.916c38.981 0 70.632-31.682 70.632-70.551 0-38.937-31.718-70.551-70.631-70.551-38.98 0-70.631 31.68-70.631 70.55s31.65 70.552 70.63 70.552zm0-138.906c37.715 0 68.366 30.616 68.366 68.288s-30.651 68.288-68.365 68.288c-37.715 0-68.366-30.616-68.366-68.288-.067-37.672 30.651-68.288 68.366-68.288z" fill="url(#paint1_linear)"/><defs><linearGradient id="paint0_linear" x1="136.235" y1="38.617" x2="39.935" y2="135.025" gradientUnits="userSpaceOnUse"><stop stop-color="#E2E1E6"/><stop offset=".845" stop-color="#fff"/></linearGradient><linearGradient id="paint1_linear" x1="137.417" y1="37.436" x2="37.659" y2="137.307" gradientUnits="userSpaceOnUse"><stop stop-color="#fff"/><stop offset="1" stop-color="#E6E6E6"/></linearGradient></defs></svg>