<svg width="176" height="278" fill="none" xmlns="http://www.w3.org/2000/svg"><path d="M85.47 277.986c1.6 0 2.866-1.265 2.866-2.862v-1.464a2.842 2.842 0 00-2.866-2.862 2.842 2.842 0 00-2.865 2.862v1.464a2.843 2.843 0 002.865 2.862zm0-15.907c1.6 0 2.866-1.265 2.866-2.862v-1.465a2.843 2.843 0 00-2.866-2.862 2.843 2.843 0 00-2.865 2.862v1.465a2.843 2.843 0 002.865 2.862zm0-15.908c1.6 0 2.866-1.264 2.866-2.862v-1.464a2.843 2.843 0 00-2.866-2.862 2.843 2.843 0 00-2.865 2.862v1.464a2.842 2.842 0 002.865 2.862zm0-15.907c1.6 0 2.866-1.265 2.866-2.862v-1.464a2.842 2.842 0 00-2.866-2.862 2.842 2.842 0 00-2.865 2.862v1.464a2.843 2.843 0 002.865 2.862zm0-15.907c1.6 0 2.866-1.265 2.866-2.862v-1.465a2.843 2.843 0 00-2.866-2.862 2.843 2.843 0 00-2.865 2.862v1.465c0 1.531 1.266 2.862 2.865 2.862z" fill="#FF984E"/><path d="M28.7 151.393h57.837v44.327l-57.838-44.327z" fill="#FFCCA8"/><path d="M88.202 174.955c48.242 0 87.356-39.07 87.356-87.258C175.558 39.51 136.444.44 88.202.44S.846 39.51.846 87.698c0 48.187 39.114 87.257 87.356 87.257z" fill="#FF984E"/><path d="M87.603 154.388c-36.764 0-66.567-29.769-66.567-66.49 0-36.723 29.803-66.492 66.567-66.492 36.763 0 66.566 29.77 66.566 66.491 0 36.722-29.803 66.491-66.566 66.491z" fill="#53576B"/><path d="M88.202 156.718c-38.383 0-69.498-31.08-69.498-69.42 0-38.339 31.115-69.42 69.498-69.42 38.383 0 69.498 31.081 69.498 69.42 0 38.34-31.115 69.42-69.498 69.42z" fill="url(#paint0_linear)"/><path d="M90 54v7.5m0 45v7.5m13.125-45S101.25 61.5 90 61.5s-13.125 7.337-13.125 11.25c0 15.526 26.25 7.368 26.25 22.5 0 3.913-1.875 11.25-13.125 11.25S76.875 99 76.875 99" stroke="#252525" stroke-width="5" stroke-linecap="round"/><path d="M88.202 157.916c38.981 0 70.631-31.682 70.631-70.551 0-38.937-31.717-70.551-70.63-70.551-38.981 0-70.632 31.68-70.632 70.55s31.651 70.552 70.631 70.552zm0-138.906c37.715 0 68.366 30.616 68.366 68.288s-30.651 68.288-68.366 68.288c-37.714 0-68.365-30.616-68.365-68.288C19.77 49.626 50.488 19.01 88.202 19.01z" fill="url(#paint1_linear)"/><defs><linearGradient id="paint0_linear" x1="136.946" y1="38.617" x2="40.647" y2="135.025" gradientUnits="userSpaceOnUse"><stop stop-color="#E2E1E6"/><stop offset=".845" stop-color="#fff"/></linearGradient><linearGradient id="paint1_linear" x1="138.128" y1="37.436" x2="38.371" y2="137.307" gradientUnits="userSpaceOnUse"><stop stop-color="#fff"/><stop offset="1" stop-color="#E6E6E6"/></linearGradient></defs></svg>