<svg width="192" height="152" fill="none" xmlns="http://www.w3.org/2000/svg"><g clip-path="url(#clip0)" filter="url(#filter0_d)" fill="#FFCCA8"><path d="M34.285 103.821v-6.17c0-2.763 0-5.525.071-8.287.036-2.225 0-4.485.323-6.673.465-3.121 2.004-4.736 5.298-5.166 3.544-.43 7.088-.682 10.667-.969 2.65-.215 5.298-.358 7.947-.43 3.222-.072 6.444 0 9.666.072 3.4.071 6.837.143 10.238.323 3.15.179 6.336.394 9.45.825 9.773 1.327 19.546 2.654 29.283 4.197 4.725.753 9.415 1.794 14.033 3.013 4.582 1.184 9.092 2.62 13.531 4.198 2.721.968 5.262 2.367 7.876 3.587 1.825.825 3.687 1.579 5.369 2.619 1.575.933 3.258 1.937 3.652 3.982.179.861.286 1.83.107 2.655-.537 2.367-1.181 4.735-1.861 7.067a248.208 248.208 0 01-2.184 7.318c-.609 1.973-1.289 3.911-1.969 5.884-.036.143-.251.215-.501.394-.895-2.87-3.079-4.412-5.513-5.596-1.503-.717-3.15-1.148-4.761-1.65-2.9-.861-5.763-1.722-8.663-2.547a419.376 419.376 0 00-9.057-2.368c-4.618-1.148-9.2-2.296-13.818-3.336-8.269-1.902-16.681-3.157-25.13-3.982-6.193-.61-12.35-1.651-18.543-2.189-5.083-.43-10.166-.502-15.286-.538-3.329-.036-6.658.18-9.987.502-2.506.252-5.012.79-7.446 1.435-.966.251-1.718 1.112-2.792 1.83zm112.333-1.794c.215-.287.322-.466.501-.61.967-.932.788-2.403-.43-2.905a21.696 21.696 0 00-3.293-1.005c-.286-.072-.859.323-.966.61-.645 1.722-1.146 3.444-1.719 5.202-.179.574-.143.968.537 1.148.967.251 1.933.574 2.9.861 1.074.323 1.969.179 2.685-.79.608-.896.393-1.722-.215-2.511zm-56.704-8.538c1.038.502 1.719.395 2.327-.395a8.255 8.255 0 011.647-1.506c.286-.18.787-.215 1.11-.108.143.072.214.574.214.897 0 .359-.179.718-.107 1.076.072.323.286.79.537.897.501.18.895-.036.967-.681.214-1.902.5-3.767.716-5.669.035-.25-.359-.717-.61-.753a35.369 35.369 0 00-3.865-.43c-.394-.036-.895.215-1.217.502-1.074 1.004-.824 2.26.608 3.48-.751.896-1.503 1.757-2.327 2.69zm-4.653-3.444c-.108-.036-.18-.036-.287-.072l.215-3.12c.036-.467.25-1.077-.501-1.184-.752-.144-.788.43-.86.932-.214 1.794-.429 3.588-.572 5.381-.036.323.215.933.394.933.394.072.966 0 1.253-.287.823-.825 1.539-1.794 2.29-2.655.18-.215.395-.394.61-.61.07.037.142.072.214.108a640.897 640.897 0 00-.43 3.875c.466.035.824.071 1.29.107.286-2.045.572-4.018.787-5.99.036-.395-.108-1.005-.394-1.149-.573-.323-1.11-.107-1.54.503-.751 1.112-1.61 2.152-2.47 3.228zm68.23 18.045c.072-.215.143-.323.143-.43-.143-2.117-.25-4.234-.429-6.314-.036-.395-.43-.861-.788-1.077-.573-.394-1.145-.143-1.575.395-1.181 1.435-2.327 2.87-3.508 4.305-.287.359-.895.753-.287 1.22.502.358 1.074.323 1.504-.251.215-.287.609-.646.895-.61.716.071 1.396.287 2.04.574.287.107.537.61.537.897-.071 1.076.573 1.219 1.468 1.291zM71.264 86.996c.071-.682.215-1.292.143-1.901-.036-.36-.322-.826-.644-.97-.502-.178-.895.109-.895.718 0 .323-.108.646-.108.969-.143 1.83-.25 3.623-.394 5.381.967.395 1.36.108 1.397-.79.035-.68.179-1.326.286-2.116.788.108 1.432.18 2.112.251.644.036.86.36.788 1.005-.108.646-.144 1.327-.251 2.08.501.036.86.108 1.289.144.286-2.224.573-4.34.787-6.421.036-.252-.394-.682-.68-.79-.644-.215-.752.287-.823.79-.287 2.116-.287 2.116-2.327 1.757-.143 0-.322-.035-.68-.107zm51.19 11.157c.215-1.722.287-1.794 1.79-1.507.501.108.967.251 1.468.287.286 0 .573-.18.859-.287-.179-.251-.322-.681-.573-.753-.644-.216-1.324-.323-2.004-.43-.537-.108-.824-.324-.716-.97.107-.645.429-.86 1.038-.717.787.215 1.575.502 2.398.646.287.036.645-.251.895-.43.036-.037-.107-.575-.25-.646-1.611-.467-3.222-.897-4.94-1.364-.537 2.332-1.038 4.413-1.468 6.53-.036.215.251.681.465.753 1.253.394 2.578.681 3.866 1.04.86.251 1.11-.179 1.074-.968a94.825 94.825 0 00-3.902-1.184zm-67.3-6.888c-.035-.251-.035-.466-.107-.646-1.073-1.937-2.147-3.874-3.293-5.776-.143-.215-.501-.394-.787-.43-1.11-.108-1.36.717-1.576 1.543a183.391 183.391 0 00-1.038 4.197c-.143.61-.215 1.22-.322 1.83.108.071.18.143.287.215.43-.251 1.145-.467 1.217-.79.286-1.291 1.217-1.291 2.183-1.363.501-.036 1.074-.323 1.36.43.359.898 1.075 1.041 2.077.79zm13.353-.251c-.25-.754-.465-1.328-.68-1.937-.5-1.579-1.038-3.121-1.54-4.7-.178-.574-.608-.933-1.18-.825-.358.072-.86.359-1.003.681-1.002 2.045-1.933 4.126-2.9 6.243.788.287 1.433.574 1.755-.43.393-1.364 1.539-.718 2.362-.862.716-.107 1.11.251 1.29.969.214 1.112 1.001 1.112 1.896.86zm44.998 6.17c-.394-2.188-.788-4.305-1.145-6.457-.108-.754-.502-1.076-1.218-1.22-.93-.18-1.074.574-1.396 1.04-1.145 1.687-2.219 3.444-3.329 5.202.609.467 1.325.825 1.826-.25.394-.826 1.038-.718 1.718-.575.752.18 1.718.036 1.826 1.22.143 1.22.966 1.112 1.718 1.04zm-10.703-4.986c.322.25.537.323.608.502.286.681.644 1.363.788 2.08.179.897.787.897 1.432.933.035-.394.143-.825.071-1.22-.143-.61-.322-1.255-.68-1.793-.43-.682-.394-1.148.179-1.686.43-.43.823-.897 1.217-1.328.215-.25.501-.466.752-.681-.322-.144-.645-.43-.931-.43-1.181-.037-1.539 1.004-2.112 1.757-.251.287-.573.538-.859.79-.072-.072-.179-.144-.251-.216.072-.646.144-1.255.287-1.901.107-.502.143-.933-.537-1.076-.645-.108-.931.215-1.038.789-.287 1.83-.537 3.623-.86 5.417-.107.646.215.933.716.897.323-.036.752-.359.824-.646.215-.646.25-1.327.394-2.188zm-45.5-3.803c.86-.108 1.54-.144 2.22-.251 1.181-.18 1.79-.969 1.79-2.296 0-1.076-.644-2.01-1.647-2.045-1.217-.072-2.434.036-3.651.144-.179 0-.465.394-.465.573.107 1.974.286 3.947.43 5.884.035.502.178.897.858.825.68-.072.824-.466.752-1.04-.072-.61-.179-1.148-.286-1.794zm73.708 5.955c-.036 0-.358.036-.644.144-2.041.789-3.115 3.659-2.077 5.596.931 1.794 3.616 2.332 4.941 1.005.25-.252.501-.969.358-1.113-.323-.358-.86-.645-1.361 0-.537.718-1.396.61-1.933.216-.465-.323-.859-1.04-.859-1.579 0-.717.286-1.47.644-2.116.681-1.22 2.47-1.148 3.007.143.251.61.609.897 1.074.574.251-.18.322-.897.179-1.255-.572-1.328-1.79-1.579-3.329-1.615zm-11.598-2.942c-.179.718-.358 1.364-.466 2.045-.179 1.148-.895 1.22-1.825 1.005-.895-.215-1.325-.646-1.074-1.615.143-.538.286-1.076.286-1.578 0-.287-.358-.574-.537-.861-.25.215-.644.359-.752.61-.25.574-.358 1.22-.501 1.865-.25 1.112.179 2.01 1.289 2.404.752.251 1.575.323 2.47.502-.143.825-.286 1.65-.43 2.44.859.538 1.325.466 1.504-.539a78.783 78.783 0 011.145-5.022c.323-1.005 0-1.363-1.109-1.256zm-39.521.969c.215-1.435.465-2.87.573-4.269.071-1.112.358-1.794 1.682-1.507.215.036.501-.25.716-.394-.179-.251-.322-.718-.537-.754-1.718-.25-3.472-.394-5.19-.574-.251 1.148-.251 1.256.68 1.328.966.071 1.181.466 1.038 1.363-.18 1.22-.18 2.44-.322 3.623-.18 1.005.143 1.435 1.36 1.184zm55.737 3.05c0 .466-.107.968.036 1.04.537.323 1.145.502 1.825.789-.107.466-.25.933-.358 1.4-.286 1.219-.644 2.439-.859 3.658-.035.251.287.646.537.861.108.072.645-.143.716-.323.394-1.112.824-2.224 1.074-3.336.358-1.614.322-1.578 1.969-1.578.286 0 .573-.36.859-.574-.215-.216-.394-.574-.644-.646a34.76 34.76 0 00-2.578-.754c-.859-.215-1.646-.358-2.577-.538zm-91.32-8.933c1.002-.18 1.862-.287 2.685-.503.25-.071.465-.394.716-.61-.286-.179-.573-.538-.86-.538-1.252.072-2.505.251-3.722.467-.215.036-.501.574-.466.86.287 2.117.609 4.198.967 6.422.537-.036.93-.072 1.468-.107-.322-2.081-.537-4.018-.788-5.991zm90.067-25.507c-.286 2.332-.501 4.7-.931 7.031-.537 2.942-1.575 5.704-3.221 8.215-.967 1.471-1.969 2.978-3.007 4.413-.466.61-1.11 1.112-1.719 1.579-.179.143-.537.179-.787.107-3.58-.681-7.124-1.435-10.704-2.045-5.871-1.004-11.777-2.009-17.684-2.798-5.262-.682-10.596-1.112-15.858-1.614a22.374 22.374 0 00-2.685-.072c-.93.036-1.36-.502-1.79-1.256-1.933-3.444-2.792-7.175-3.222-11.049a25.887 25.887 0 011.038-10.619c1.039-3.264 2.399-6.457 4.547-9.148 2.255-2.834 4.725-5.489 7.84-7.354 4.331-2.583 8.949-4.449 14.032-4.843 5.37-.395 10.489.395 15.429 2.547 5.262 2.26 9.522 5.776 12.851 10.332 2.435 3.336 4.224 7.067 4.905 11.229.358 1.793.644 3.515.966 5.345zm-34.652-3.229c.107-1.901.036-3.695-1.575-5.094-2.363-2.045-5.835-1.543-7.195 1.04-1.504 2.87-1.97 6.099-1.432 9.328.286 1.722 1.396 3.049 3.186 3.551 2.004.574 3.83.144 5.047-1.578 1.504-2.117 1.826-4.664 1.969-7.247zm11.849.861c0-.251-.036-.502-.036-.753-.071-2.404-1.575-4.162-3.902-4.52-2.506-.395-4.295.789-5.226 3.228-.931 2.476-1.217 4.987-1.074 7.606.107 1.83 1.289 3.551 2.935 4.125 2.005.682 3.831.323 5.048-1.22 2.04-2.475 2.076-5.488 2.255-8.466zm-28.96-4.484a84.42 84.42 0 01-.108 1.578c-.394 2.583-.787 5.202-1.217 7.785-.143.825.108 1.256.967 1.256.25 0 .5.035.751.107.824.215 1.146-.143 1.253-.968.609-4.198 1.253-8.43 1.862-12.628.036-.359-.072-1.112-.215-1.112-.752-.108-1.861-.359-2.184.036-.93 1.04-2.076 1.578-3.293 2.116-1.504.682-1.826 1.256-1.575 3.193 1.217-.466 2.434-.897 3.759-1.363zm47.575 13.489c-.072-1.794-1.182-3.157-3.007-3.516-1.468-.287-3.544.646-3.723 2.224-.108.825-.322 1.614-.322 2.44-.072 1.542.823 2.69 2.255 3.12 1.611.467 3.114 0 3.83-1.398.43-.862.645-1.902.967-2.87zm-12.959-12.915c-1.718.107-2.649.825-3.007 2.44-.179.753-.251 1.578-.286 2.331-.036 1.363.787 2.475 2.004 2.87 1.683.538 3.222.215 3.938-1.005.465-.825.716-1.865.895-2.834.358-2.331-1.181-3.946-3.544-3.802zm10.847 1.758c-1.289-.718-1.898-.646-2.542.215-1.503 2.009-2.971 4.054-4.439 6.099-1.647 2.26-3.293 4.484-4.868 6.78-.144.215-.072.932.035.968.788.216 1.54.36 2.184-.538 1.647-2.367 3.365-4.663 5.048-6.995 1.539-2.189 3.042-4.341 4.582-6.53zm-21.121-20.09c-.608.753-1.038 1.686-1.754 2.045-.752.359-1.754.18-3.043.25 1.933 1.472 1.862 3.122.895 5.095 1.217-.287 2.112-.79 2.936-.646.859.144 1.61.861 2.756 1.507-.716-2.332.072-3.73 2.112-4.664-1.11-.43-2.076-.574-2.649-1.112-.609-.574-.823-1.542-1.253-2.475zm-6.515 5.166c-1.289-.18-2.04-.754-2.184-1.973 0-.072-.572-.18-.572-.144-.573 1.148-1.611 1.363-3.15 1.256 1.324 1.112 1.252 2.26.751 3.767 1.468-.933 2.542-.825 3.651.574-.107-1.686.287-2.727 1.504-3.48zm11.276 1.758c1.11 1.004.859 2.224.68 3.48 1.325-1.005 2.291-.467 3.401.717-.071-1.578.322-2.619 1.718-3.444-1.467-.18-2.255-.682-2.398-1.901 0-.072-.716-.215-.716-.144-.537 1.112-1.396 1.471-2.685 1.292z"/><path d="M159.469 91.014c-1.217 1.04-3.078.215-3.902 1.901-1.253-.61-2.541-1.22-3.83-1.865 1.11-2.045 2.255-3.875 3.186-5.812.931-2.01 1.897-4.054 2.47-6.17.967-3.48 1.826-6.96 2.327-10.512.716-4.986.716-10.045-.179-15.031-.895-4.987-2.291-9.866-4.475-14.493-2.327-4.915-5.262-9.4-8.878-13.453-4.152-4.7-8.985-8.538-14.355-11.695-3.257-1.902-6.73-3.265-10.273-4.556-5.048-1.794-10.239-2.691-15.501-3.014-4.761-.287-9.594-.107-14.319.897-5.763 1.22-11.24 3.157-16.431 5.92-2.005 1.075-3.866 2.475-5.8 3.73-3.436 2.26-6.371 5.058-9.02 8.144-1.611 1.865-3.043 3.91-4.547 5.883-2.183 2.834-3.58 6.135-5.047 9.363-2.148 4.7-3.365 9.615-3.866 14.709-.322 3.3-.43 6.708-.18 10.009.287 3.408 1.146 6.78 1.72 10.152.035.251-.287.79-.502.825-1.002.18-2.04.216-3.043.287-.286-1.937-2.22-1.793-3.222-3.085.43-.61.967-1.327 1.504-2.045.787-1.076.787-1.148-.322-1.901a16.53 16.53 0 00-.824-.538c-1.432-.861-1.396-.825-.358-2.045 1.862-2.152 1.862-1.578-.143-3.48-.072-.072-.179-.107-.25-.18-.824-.609-.967-1.183.035-1.721.036 0 .036-.036.072-.072 2.076-1.865 2.363-1.255.107-3.623-.966-1.005-.966-.969.072-1.794.394-.287.788-.61 1.181-.933.931-.753.967-.932.143-1.865a780.007 780.007 0 00-1.754-1.973c1.253-.79 2.291-1.471 3.437-2.189a857.103 857.103 0 00-2.076-3.408c.895-.43 1.682-.86 2.506-1.184.93-.358.859-.86.43-1.578-.466-.79-.824-1.65-1.29-2.547 1.325-.538 2.506-1.04 3.688-1.543-.43-1.004-.824-1.865-1.218-2.762-.286-.61-.071-.933.537-1.112.68-.18 1.36-.43 2.077-.574.787-.18.895-.574.68-1.256-.287-.897-.537-1.83-.824-2.798 1.11-.215 2.04-.466 3.007-.574.86-.072.931-.538.752-1.184-.215-.789-.465-1.578-.608-2.367-.036-.216.286-.682.5-.718.788-.143 1.576-.143 2.363-.143.788 0 1.11-.36.967-1.148a83.821 83.821 0 01-.43-2.978c1.146 0 2.148-.072 3.115.036.859.072 1.11-.215 1.038-1.005-.072-.789-.036-1.578-.072-2.367-.035-.646.287-.825.86-.718.715.108 1.431.18 2.147.251.645.072.931-.143.931-.825 0-.717.143-1.435.108-2.152-.036-.79.393-.933 1.038-.79.644.144 1.252.287 1.897.431.573.143.895-.036.966-.682.072-.717.287-1.435.323-2.116.071-1.112.68-1.112 1.467-.861.895.287 1.79.538 2.864.86.43-1.255.824-2.439 1.289-3.766.966.323 1.969.61 2.971 1.004.752.287 1.002.072 1.181-.681.215-.861.609-1.686.967-2.69.93.394 1.861.753 2.72 1.219.752.395 1.146.395 1.432-.502.287-.861.788-1.65 1.253-2.583 1.182.646 2.256 1.255 3.473 1.937.752-1.148 1.432-2.224 2.183-3.336.931.61 1.79 1.148 2.614 1.793.537.43.787.503 1.145-.143s.86-1.22 1.253-1.866c.43-.753.86-.86 1.468-.179.393.43.966.753 1.324 1.22.716.825 1.253.538 1.826-.144.573-.681 1.11-1.399 1.79-2.188.823.861 1.575 1.614 2.291 2.404.429.466.752.466 1.145-.036.645-.825 1.253-1.65 1.898-2.476.179.108.322.18.501.287.608.79 1.217 1.543 1.79 2.332.465.682.93.79 1.539.18.501-.503 1.074-.969 1.575-1.435.43-.395.788-.43 1.146.107.429.682.93 1.292 1.288 1.973.394.682.788.682 1.361.251.572-.466 1.217-.825 1.825-1.255.502-.359.895-.359 1.182.287.286.646.608 1.291.966 1.937.358.646.824.897 1.575.43.752-.502 1.575-.932 2.542-1.506.43 1.004.788 1.901 1.181 2.798.251.682.609 1.004 1.361.574.859-.43 1.754-.753 2.756-1.184.394 1.04.788 2.045 1.11 3.085.215.646.465.754 1.074.503.895-.395 1.861-.61 2.971-.969.322 1.256.608 2.44.931 3.874.895-.179 1.825-.358 2.684-.574.895-.215 1.325-.107 1.468 1.005.394 3.193.108 2.69 3.079 2.26.429-.072.823-.072 1.36-.108.072.969.143 1.866.143 2.763 0 .753.143 1.184 1.003 1.112.751-.072 1.503-.072 2.255-.108.608-.036.966.18.823.897-.107.538-.071 1.076-.215 1.614-.286 1.077.108 1.579 1.218 1.507.536-.036 1.073 0 1.61-.036.824-.072 1.253.18 1.074 1.112-.143.718-.179 1.435-.322 2.153-.179.717.143 1.004.788 1.076.751.072 1.503.18 2.255.215.644.036.823.323.68.933a40.424 40.424 0 01-.465 2.224c-.179.682 0 1.005.752 1.112.751.072 1.467.287 2.219.395.644.108.859.359.573 1.04-.322.79-.645 1.615-.859 2.44-.072.25.214.753.429.86.967.395 1.969.647 3.186 1.041-.394.969-.716 1.902-1.181 2.727-.43.753-.143 1.04.501 1.291.752.287 1.468.574 2.219.825.645.215.681.538.358 1.04-.429.718-.895 1.471-1.252 2.26-.108.252.071.826.322.97.859.537 1.79 1.004 2.828 1.542-.573.86-.967 1.794-1.611 2.44-.645.645-.43.932.143 1.327.823.574 1.682 1.148 2.577 1.758-.823 1.004-1.575 1.9-2.434 2.977.716.574 1.432 1.184 2.184 1.722 1.002.753 1.038.861.107 1.758-.465.43-.93.897-1.432 1.291-.751.538-.465 1.005.072 1.435.716.61 1.432 1.184 2.291 1.938-.823.681-1.539 1.399-2.398 1.973-.716.466-.788.825-.108 1.363.358.287.644.681.931 1.04 1.324 1.579 1.36 1.256-.465 2.404-1.755 1.112-1.79 1.04-.573 2.726 1.253 1.686 1.253 1.686-.645 2.727-1.754.968-1.754.968-.608 2.619 1.145 1.65 1.145 1.757-.752 2.51-2.076.826-2.076.826-1.11 2.87.788 1.687.788 1.651-.966 2.153-.251.072-.466.18-.716.251-1.002.18-1.325.646-.859 1.65.322.646.465 1.328.716 2.01.214-.036.25.143.25.25zm-98.801 13.273c0 .646-.036 1.148 0 1.65.035.503.107 1.005.179 1.579 1.074-.036 2.112-.036 3.114-.18.68-.107.895.252.93.718.108 1.04.144 2.117.18 3.193-19.796-.718-39.127 1.614-58.422 7.067a71.44 71.44 0 011.11-2.081c1.396-2.654 2.756-5.345 4.152-8a124.534 124.534 0 012.578-4.807c.322-.574.214-.933-.215-1.291-2.47-2.153-4.976-4.305-7.446-6.422-.752-.646-1.54-1.255-2.327-1.901-.573-.467-.787-.754.18-1.005 4.366-1.04 8.734-2.224 13.137-3.192 3.651-.79 7.374-1.4 11.097-2.01 1.504-.25 3.043-.322 4.904-.466 0 1.758.036 3.337 0 4.95-.071 4.126-.143 8.252-.178 12.413-.036 1.758 1.002 2.942 2.792 3.373 3.365.789 6.694.287 9.987-.539a521.389 521.389 0 0110.203-2.367c1.253-.251 2.613-.431 4.045-.682zm61.178 15.39c.322-1.04.966-.861 1.611-.538.823.431 1.611.861 2.541 1.328.573-1.292 1.074-2.476 1.611-3.731.824.358 1.575.645 2.291.968 1.146.538 1.575.359 1.933-.897.072-.251.108-.502.215-.968.824.394 1.611.681 2.291 1.076 3.401 2.009 6.73 4.161 10.203 6.027 2.47 1.327 5.119 2.439 8.054 2.511 1.396.036 2.363-.646 3.079-1.901 1.646-2.87 2.219-6.099 3.221-9.184.824-2.547 1.576-5.13 2.435-7.892 1.002.394 1.933.645 2.756 1.04 2.757 1.363 5.549 2.655 8.234 4.161 4.832 2.691 9.593 5.453 14.39 8.216.466.287.859.681 1.289 1.004-.537.323-1.038.682-1.575.933a957.982 957.982 0 01-8.914 3.91c-.573.251-1.181.502-1.79.754-.572.251-.751.681-.644 1.291.895 4.735 1.754 9.507 2.649 14.242.107.61.286 1.184.286 1.866-17.505-10.942-36.084-19.301-56.166-24.216z"/><path d="M105.916 120.538c-.788.897-1.396 1.614-2.076 2.332-.358.395-.716.646-1.182 0-.465-.646-1.145-1.184-1.646-1.794-.394-.466-.68-.502-1.146-.072-.537.539-1.145.969-1.682 1.471-.609.574-1.003.467-1.432-.215-.501-.789-1.146-1.543-1.79-2.403a77.405 77.405 0 00-2.363 1.829c-.573.466-1.038.538-1.432-.251-.25-.538-.608-.969-.823-1.507-.394-.968-1.002-1.04-1.826-.538-.537.323-1.11.682-1.646 1.041-.502.358-.824.394-1.11-.287-.43-.969-1.002-1.866-1.504-2.799-1.181.538-2.29 1.041-3.544 1.651-.5-1.22-.966-2.404-1.467-3.731-.895.322-1.754.645-2.614.968-1.073.395-1.324.287-1.646-.861-.215-.825-.43-1.65-.68-2.583-1.253.323-2.435.646-3.795 1.041-.286-1.256-.573-2.512-.86-3.839-1.324.251-2.576.466-3.865.718-.18-1.148-.358-2.261-.501-3.373-.072-.681-.466-.645-.967-.574-.93.144-1.897.18-3.043.287 0-1.004-.036-1.937 0-2.834.072-1.076-.143-1.291-1.217-1.184-.501.036-1.002.072-1.503.036-.68-.036-1.504.144-1.325-1.076.215-1.327.286-1.435 1.611-1.327 1.468.107 2.935.071 4.403.251.537.072 1.146.359 1.575.717 3.866 3.408 8.09 6.278 12.637 8.718 7.696 4.125 16.001 5.847 24.629 6.385 5.154.323 10.238-.179 15.214-1.578 3.723-1.04 7.374-2.475 11.061-3.659.43-.144 1.002-.108 1.468.036 2.219.609 4.403 1.255 6.73 1.901-.072.502-.108.969-.215 1.65-.967-.287-1.826-.466-2.649-.789-1.253-.502-1.539-.395-1.862.933-.143.538-.179 1.076-.358 1.578-.214.682-.644 1.041-1.36.502-.179-.143-.358-.215-.573-.287-.68-.287-1.396-.538-2.147-.825-.537 1.256-1.039 2.44-1.611 3.731-1.217-.645-2.327-1.219-3.509-1.865-.465.861-.966 1.65-1.36 2.511-.358.825-.787.825-1.432.43-.644-.43-1.324-.825-1.933-1.327-.537-.466-.823-.179-1.11.251-.393.646-.787 1.328-1.181 2.009-.322.538-.68.718-1.217.287l-1.503-1.184c-1.074-.861-1.074-.861-1.898.18-.537.681-1.074 1.363-1.718 2.116-1.038-1.004-2.005-1.865-3.007-2.798zm42.42-31.138c-1.825-.682-1.79-.647-.895-2.225 1.969-3.336 3.401-6.924 4.69-10.583 1.503-4.197 2.112-8.502 2.327-12.879.143-2.511-.144-5.094-.43-7.641a43.276 43.276 0 00-1.002-5.704c-1.074-4.341-2.578-8.574-4.905-12.413-1.825-3.013-3.758-6.027-6.049-8.645-3.437-3.875-7.303-7.426-11.814-10.01-3.902-2.224-7.947-4.197-12.314-5.488a54.806 54.806 0 00-12.923-2.224c-4.51-.216-8.985.322-13.424 1.183-6.086 1.184-11.491 3.803-16.753 6.852-2.112 1.22-3.938 2.978-5.835 4.52-3.616 2.906-6.587 6.386-9.057 10.297-2.47 3.874-4.44 7.964-5.728 12.412-1.181 4.126-1.897 8.323-2.076 12.556-.215 4.233.036 8.502 1.289 12.664.25.79.465 1.578.572 2.403.036.36-.143 1.077-.322 1.113-.573.107-1.253.179-1.432-.682-.322-1.435-.68-2.87-.966-4.305-.68-3.803-1.217-7.641-.967-11.516.287-4.34.895-8.645 2.184-12.843 1.324-4.412 3.293-8.538 5.727-12.412 2.757-4.341 6.122-8.144 10.06-11.516 5.083-4.377 10.846-7.605 17.11-9.758a51.962 51.962 0 0114.284-2.762c5.048-.251 10.059 0 14.999 1.148 6.122 1.435 11.885 3.73 17.255 7.139 4.546 2.87 8.448 6.386 12.028 10.368 2.649 2.941 4.725 6.278 6.622 9.686 2.542 4.628 4.046 9.614 5.084 14.78 1.432 6.995.966 13.92-.609 20.735-.823 3.588-2.255 7.032-3.651 10.44-.752 1.901-2.005 3.551-3.079 5.31z"/><path d="M51.396 75.624c-1.575.286-1.718.215-2.005-1.184-.572-3.086-1.252-6.17-1.575-9.292-.25-2.511-.071-5.094-.107-7.641-.036-3.695.86-7.21 1.718-10.727.43-1.722 1.074-3.408 1.79-5.058 1.038-2.404 2.005-4.843 3.365-7.067 1.862-2.978 3.938-5.848 6.121-8.574 3.652-4.484 8.198-8 13.138-11.014A49.555 49.555 0 0186.048 9.65c3.473-1.004 7.052-1.83 10.668-2.296 5.584-.717 11.205-.322 16.717.826 3.58.753 7.16 1.614 10.597 2.87 3.937 1.434 7.624 3.515 11.133 5.919 4.904 3.372 9.092 7.426 12.779 12.09 2.506 3.192 4.475 6.6 6.229 10.224 2.184 4.484 3.58 9.22 4.439 14.134 1.253 7.103.788 14.17-.859 21.13-.644 2.69-1.468 5.346-2.542 7.893-1.038 2.51-2.506 4.879-3.758 7.318-.323.61-.752.753-1.397.502-.644-.25-.823-.466-.429-1.184 1.217-2.116 2.434-4.269 3.472-6.493 1.683-3.623 2.721-7.462 3.437-11.408.966-5.345 1.253-10.726.501-16.108-.573-4.269-1.754-8.43-3.365-12.448-1.145-2.906-2.577-5.668-4.224-8.323-3.186-5.238-7.231-9.794-12.064-13.489-3.114-2.403-6.551-4.484-10.059-6.314-6.265-3.3-13.03-5.058-20.047-5.596-3.687-.287-7.338-.108-11.061.287-4.44.466-8.627 1.686-12.78 3.085-2.291.754-4.403 2.01-6.587 3.085-5.37 2.727-10.023 6.458-14.032 10.87-3.294 3.624-5.943 7.713-8.162 12.126-2.65 5.202-4.117 10.69-4.869 16.395-.573 4.376-.608 8.753.036 13.13.322 2.224.93 4.412 1.396 6.6.072.395.108.79.18 1.149z"/><path d="M126.786 82.655c.179-.287.358-.538.573-.825 1.181-1.579 2.434-3.05 3.472-4.7 2.434-3.91 3.58-8.25 4.081-12.807.358-3.408.143-6.78-.752-10.045-2.004-7.246-6.049-13.166-12.135-17.614-5.191-3.803-11.097-5.56-17.434-5.991-5.942-.395-11.455 1.005-16.717 3.803-4.69 2.51-8.412 5.955-11.276 10.367-2.864 4.341-4.475 9.112-4.726 14.314-.107 1.938-.214 3.91.108 5.812.465 2.619 1.288 5.202 2.004 7.749.18.646.716 1.22 1.003 1.865.143.323.036.754.036 1.112-.537-.143-1.29-.143-1.54-.502-.573-.825-.93-1.793-1.288-2.726-1.36-3.552-2.005-7.175-2.04-10.978 0-3.767.572-7.39 1.789-10.906 2.112-6.098 5.978-10.977 11.097-14.816 4.01-3.013 8.592-5.094 13.568-5.92 4.438-.717 8.949-.753 13.388.252 5.584 1.291 10.703 3.516 15.035 7.39 4.045 3.588 7.088 7.857 9.128 12.88 2.47 6.062 2.614 12.268 1.289 18.582-.895 4.233-2.685 8.072-5.155 11.588-.537.789-1.217 1.506-1.933 2.152-.322.287-.931.287-1.396.43 0-.215-.072-.322-.179-.466zm-.107 28.377c-12.816 5.381-25.918 6.457-39.27 2.403-8.127-2.439-15.25-6.637-21.837-12.305 2.363-.61 3.687.789 5.083 1.866 2.936 2.26 6.157 3.982 9.45 5.596 5.55 2.762 11.42 4.52 17.542 5.13 3.544.359 7.195.395 10.739.072 3.974-.395 7.875-1.292 11.777-2.081 1.289-.251 2.506-.825 3.723-1.291 1.074-.431 1.933 0 2.793.61z"/><path d="M122.24 110.135c-18.579 5.919-35.798 3.192-51.585-8.359 1.253-.287 2.434-.287 3.508.502 3.58 2.619 7.59 4.341 11.742 5.884 4.94 1.829 10.023 2.87 15.25 3.049 3.329.143 6.658-.108 9.952-.502 2.756-.323 5.441-1.184 8.161-1.615.967-.143 2.041.323 3.043.538 0 .144-.036.323-.071.503zm-7.625-87.785c.358-.395.752-.754 1.074-1.184.716-.933 1.396-1.901 2.792-1.507.286.072.537.43.787.682-.286.215-.536.502-.859.574-.537.143-2.506 1.794-2.613 2.332 0 .107 0 .215.036.287.465 1.255.931 2.51 1.432 3.91.358-.287.68-.538 1.002-.825 1.611-1.471 3.222-3.014 4.869-4.448.214-.18.716-.287.895-.18.429.323 1.288.18 1.181 1.112a60.972 60.972 0 00-.251 4.413c-.035 1.255 0 2.511 0 3.767-1.646-.144-1.861-.43-1.897-1.687 0-.43-.322-.968-.68-1.255a4.757 4.757 0 00-1.79-.933c-.322-.108-.859.108-1.146.359-.572.538-1.002.502-1.825.43-2.148-.25-2.757-1.506-2.936-3.372-.035-.502-.465-1.004-.716-1.47-.143.035-.25.071-.393.071-.215.825-.394 1.65-.645 2.44-.143.43-.25 1.04-1.002.789-.716-.251-.788-.61-.573-1.328.573-1.973 1.003-3.982 1.468-5.955.179-.717.465-1.076 1.253-.897.573.144.752.395.608 1.005-.214.86-.358 1.722-.537 2.619.215.107.358.18.466.25zm8.591 4.807c.143-1.148.215-1.937.322-2.726-.107-.072-.214-.108-.286-.18a74.734 74.734 0 01-1.647 1.794c.466.323.931.646 1.611 1.112zM148.873 57.4c0 .968.072 1.936-.036 2.905-.179 1.614-1.682 2.296-3.114 1.507-.251-.144-.859-.144-.967 0-.644.968-1.575 1.184-2.541.897-1.182-.323-1.79-1.328-1.933-2.548-.108-1.04-.179-2.08-.287-3.085-.071-.789.251-1.112 1.038-1.148 2.077-.107 4.153-.25 6.193-.394 1.432-.144 1.647.107 1.647 1.865zm-5.047.07c-.573.073-1.003 0-1.396.144-.323.144-.716.467-.752.754-.072.538-.036 1.184.179 1.686.179.395.608.825 1.002.897.573.107 1.038-.287 1.038-.933.036-.825-.036-1.614-.071-2.547zm1.539.073c.107.86.107 1.686.322 2.475.179.718.752.79 1.36.395.466-.287.502-2.691.072-2.978a.813.813 0 00-.394-.108c-.429.036-.823.108-1.36.216zm-38.984-32.252c-1.36.431-1.646.252-1.646-1.148 0-.25.035-.502.035-.753-.035-.395-.107-.825-.143-1.22-.537.108-1.181.072-1.575.395-.608.466-1.074 1.148-1.503 1.758-.86 1.148-1.182 1.291-2.828.753.787-.968 1.503-1.901 2.326-2.726.466-.467.43-.646-.107-.933-1.253-.717-1.575-1.4-1.289-2.619.25-1.076 1.11-1.686 2.435-1.65 1.145 0 2.291.072 3.436.072 1.002 0 1.325.358 1.217 1.435-.215 2.152-.25 4.34-.358 6.636zm-1.467-5.704c.143-.789-.108-1.112-.931-1.004-.466.072-.967-.18-1.36-.036-.43.144-1.074.538-1.11.825-.036.395.394.933.787 1.184.358.215.895.18 1.361.215.859.072 1.396-.215 1.253-1.184zm-9.487 1.184c-.644 1.579-1.36 3.121-1.969 4.736-.286.79-.93.933-1.539.825-.286-.036-.644-.682-.716-1.076-.394-2.045-.68-4.09-1.074-6.099-.107-.538-.143-.968.501-1.04.573-.072 1.003-.072 1.11.753.143 1.328.466 2.655.716 3.982.107.036.179.036.286.072l1.504-3.552c.179-.394.358-.789.465-1.183.215-.79.824-1.077 1.432-.933.358.072.752.717.823 1.148a61.145 61.145 0 011.075 6.314c.107.968-.752.681-1.36.717-.359-1.578-.681-3.12-1.039-4.663h-.215zm35.189 15.463c2.291-1.758 4.511-3.409 6.766-5.13a282.621 282.621 0 013.58 4.484c.107.143 0 .681-.143.79-.251.143-.752.178-.895.035-.609-.574-1.11-1.22-1.611-1.865-1.038-1.328-1.253-1.328-2.399.071.716.825 1.468 1.65 2.112 2.511.144.216.179.718.036.933-.322.43-.716.43-1.109-.072-.681-.897-1.468-1.722-2.292-2.618-.572.43-1.109.86-1.718 1.327.752 1.004 1.539 2.009 2.291 3.013.322.395.537.754 0 1.184-.537.43-.823.072-1.145-.323a461.413 461.413 0 00-3.473-4.34zM78.28 33.4c-1.682-2.26-3.365-4.45-5.011-6.637.93-1.04 1.431-1.04 2.219.035 1.11 1.579 1.11 1.579 2.72.43 1.146-.788 1.146-.86.287-1.972-.215-.287-.465-.538-.68-.825-.466-.503-.322-.861.179-1.256.5-.395.895-.323 1.253.18a286.362 286.362 0 004.009 5.201c.358.467.609.861-.036 1.328-.644.466-.93.143-1.288-.323-.502-.682-1.074-1.328-1.683-2.081-.752.538-1.54 1.04-2.22 1.614-.143.108-.071.574.036.79.287.502.645.932.967 1.399.752 1.184.68 1.399-.752 2.116zm61.644 37.416c-.143-1.04-.108-1.83 1.038-1.973.752-.107 1.002-.538 1.038-1.22.036-.538.215-1.076.143-1.614-.036-.359-.25-.897-.537-1.004-1.145-.395-1.181-1.184-.931-2.332 1.039.502 2.041.933 2.972 1.399 1.467.717 2.899 1.507 4.367 2.26.644.323.859.753.788 1.47-.072.682-.466.826-1.039.97-2.255.573-4.474 1.22-6.694 1.793-.358.144-.716.18-1.145.251zm3.579-2.583c1.146-.25 1.898-.394 2.685-.574.036-.143.072-.287.108-.394l-2.256-.969c-.179.538-.322 1.112-.537 1.937zM77.958 33.758c-.609 1.076-1.217 1.435-2.148.969-.68-.323-1.217-.18-1.61.502a2.455 2.455 0 01-.61.753c-.68.646-.966 1.328-.25 2.153.394.466.25.86-.107 1.327-.466.61-.752.538-1.074-.072a111.897 111.897 0 00-2.005-3.515c-.501-.861-1.038-1.722-1.54-2.547-.321-.503-.572-.969-.107-1.579.43-.574.895-.753 1.575-.538 2.578.861 5.191 1.686 7.876 2.547zm-4.618.359c-1.038-.359-1.861-.682-2.685-.969-.035.072-.071.18-.107.251.394.682.823 1.364 1.289 2.117.5-.466.894-.825 1.503-1.4zm-3.938 11.659c-.143 1.363-.393 1.614-1.61 1.578-.716-.036-1.146.251-1.325.969-.036.215-.072.466-.18.61-.75 1.112-.429 1.865.681 2.547.25.143.036.968.072 1.507-.358-.072-.86 0-1.11-.216-1.897-1.578-3.759-3.157-5.585-4.807-.286-.251-.393-.86-.322-1.255.072-.323.537-.754.824-.754 2.756-.143 5.512-.18 8.269-.251.072-.036.143 0 .286.072zm-4.868 3.551c.25-.645.465-1.183.716-1.793h-3.007c.143.215.179.322.25.394.645.43 1.29.897 2.04 1.4zm3.436-7.389c.716.466 1.397.932 2.112 1.327.752.43.287.897.036 1.22-.143.18-.68.323-.895.18-2.004-1.077-3.973-2.225-5.978-3.301-.608-.323-.823-.646-.358-1.328.537-.753.895-1.614 1.396-2.403.86-1.364 2.327-1.758 3.58-1.04 1.432.824 1.862 2.26 1.11 3.766-.287.538-.645.969-1.003 1.579zm-3.615-1.794c2.398 1.184 2.541 1.148 3.114-.574.108-.359-.071-.969-.322-1.184-.25-.215-.966-.323-1.217-.108-.573.503-1.002 1.184-1.575 1.866zm76.141 7.282c-1.968.252-2.971-.322-3.758-1.937-.788-1.686-.537-3.085.716-4.305 1.253-1.22 3.794-2.188 5.692-1.04 1.467.897 2.362 2.942 1.718 4.556-.179.43-.788 1.076-1.003 1.005-.608-.216-.894-.754-.608-1.543.537-1.435-.501-3.085-1.79-2.834-1.11.215-2.112.897-3.15 1.435-.179.107-.287.394-.394.61-.394 1.184.215 2.296 1.432 2.367 1.324.072 1.289.754 1.145 1.686zm2.184 36.305c-1.468-1.686-2.935-1.758-4.797-.61.322-1.148.824-2.009.68-2.726-.143-.754-.895-1.4-1.503-2.332 1.861.108 3.508-.036 4.152-2.44.394.682.681 1.005.752 1.364.215.968.716 1.578 1.683 1.83.429.107.859.322 1.324.502-.716.574-1.539.968-1.897 1.614-.358.682-.251 1.614-.394 2.798zM62.995 63.749c.25.395.465.61.5.825.144 1.435.967 2.117 2.363 2.26.645.072.645.467.18.861a1.561 1.561 0 01-.251.216c-.967.502-1.396 1.22-1.253 2.331.036.323-.036.682-.108 1.471-1.503-1.578-3.042-1.758-4.725-.86-.071-.324-.143-.467-.107-.539.644-1.363.716-2.655-.537-3.73-.072-.037.179-.431.286-.647h.108c1.79.467 2.72-.645 3.544-2.188zM134.84 28.7a1269.368 1269.368 0 00-4.367 5.883c-.752 1.005-1.324.359-1.969-.323.394-.538.788-1.148 1.217-1.686.466-.61.394-1.04-.322-1.291-1.253-.467-1.861-1.507-2.291-2.655-.107-.287.072-.753.287-1.04.644-.933 1.396-1.794 2.076-2.691 1.503.682 1.539.825.537 1.973-.251.251-.537.538-.645.861-.143.502-.393 1.256-.179 1.543.43.574 1.146.896 1.79 1.255.108.072.501-.215.68-.394.358-.395.681-.826 1.003-1.256.931-1.327 1.074-1.363 2.183-.18zm-50.868-6.924c-2.327.897-2.327.897-2.828-.43l4.618-1.83c.179-.072.394-.143.608-.215.967-.395 1.11-.287 1.432.79-2.112 1.003-2.112 1.003-1.145 3.264.501 1.148 1.002 2.296 1.396 3.48.107.287-.215.932-.465 1.04-.287.107-.931-.144-1.074-.43-.752-1.615-1.396-3.265-2.112-4.88a5.877 5.877 0 00-.43-.789zm63.004 31.605c-.072-.143-.143-.215-.179-.322-.752-1.902-.752-1.866-2.685-1.4-1.324.323-2.649.574-3.938.897-.68.144-.966-.287-1.002-.789-.036-.251.358-.682.644-.753 1.54-.43 3.115-.79 4.654-1.113 1.217-.25 1.325-.394 1.038-1.578-.322-1.255-.215-1.363 1.253-1.327.465 1.83.967 3.695 1.36 5.56.144.969-.644.718-1.145.825zM58.52 51.05c.501.071.895.107 1.396.179-.215 1.291-.394 2.547-.609 3.91.895.18 1.755.323 2.65.466 1.145.216 2.255.43 3.4.61.609.108 1.038.215.86 1.005-.144.645-.43.86-1.146.717-2.255-.502-4.51-.932-6.766-1.363-.573-.108-.716-.323-.608-.861.286-1.47.536-3.014.823-4.664zm7.589 60.089c.93-.143 1.826-.323 2.756-.394.18 0 .394.394.573.609-.25.144-.501.395-.716.395-.859-.036-1.718-.143-2.577-.251 0-.108 0-.251-.036-.359zm78.612-6.565c-.931-.681-1.683-1.076-2.184-1.686-.179-.215.072-1.148.931-1.112 1.038.072 2.183.717 2.076 1.291-.036.431-.394.79-.823 1.507zm.787-3.659c-.608-.143-1.145-.215-1.575-.395-.251-.107-.573-.574-.501-.681.179-.323.573-.79.823-.754.645.108 1.253.467 1.862.754.107.072.214.466.179.538-.251.215-.537.359-.788.538zm-51.37-12.771c.537.18 1.504-.251 1.504.897 0 .574-.107 1.112-.966 1.076-1.36-.108-2.113-.467-2.077-1.184.108-1.04.86-.79 1.54-.79zm57.742 16.251c-.537-.072-1.074-.18-1.897-.323.573-.789 1.002-1.399 1.611-2.224.107 1.004.179 1.686.286 2.547zM52.184 88.646c-.752.108-1.217.144-1.933.251.143-.86.286-1.614.43-2.368.142-.035.25-.071.393-.107.322.681.68 1.363 1.11 2.224zm13.03-2.906c.179.646.358 1.328.573 2.08h-1.862c.358-.788.645-1.47.931-2.151.143.071.25.071.358.071zm44.317 7.964c.394-.753.716-1.363 1.039-2.045 1.074.502.393 1.507.966 2.332-.752-.108-1.289-.215-2.005-.287zm-52.443-6.959c.143-.538.215-1.579.394-1.615.68-.107 1.432.144 2.112.359.143.036.25.682.143.933-.25.502-1.575.681-2.65.323zM92.241 61.74c.358-2.045.645-4.125 1.074-6.17.287-1.435 1.504-2.26 2.434-1.543.537.395 1.003 1.328.931 1.973-.215 2.296-.573 4.556-1.002 6.816-.215 1.148-1.181 1.686-2.04 1.507-.931-.215-1.397-1.148-1.397-2.583zm16.754-2.798c-.573 2.08-1.11 4.197-1.79 6.242-.144.43-.967.897-1.468.897-.43 0-1.11-.646-1.217-1.112a8.13 8.13 0 01-.215-2.942c.215-1.83.215-3.767 1.325-5.345.322-.467.894-.897 1.431-1.005.716-.18 1.218.395 1.397 1.077.179.681.25 1.399.358 2.116 0 0 .107.036.179.072zm18.722 8.538c-.179.681-.287 1.399-.609 2.045-.179.358-.644.538-.966.789-.251-.43-.681-.825-.681-1.256-.035-.825.108-1.65.358-2.44.108-.394.645-.645.967-.932.251.359.537.753.752 1.148.107.18.036.43.071.646.036-.036.072 0 .108 0zm-9.2-9.22c-.179.574-.358 1.291-.68 1.973-.144.251-.609.574-.86.502-.286-.071-.751-.502-.751-.753a18.05 18.05 0 01.501-3.157c.071-.215.644-.466.966-.43.215 0 .466.43.609.717.143.287.143.646.215 1.148z"/></g><defs><clipPath id="clip0"><path fill="#fff" transform="translate(4)" d="M0 0h184v144H0z"/></clipPath><filter id="filter0_d" x="0" y="0" width="192" height="152" filterUnits="userSpaceOnUse" color-interpolation-filters="sRGB"><feFlood flood-opacity="0" result="BackgroundImageFix"/><feColorMatrix in="SourceAlpha" values="0 0 0 0 0 0 0 0 0 0 0 0 0 0 0 0 0 0 127 0"/><feOffset dy="4"/><feGaussianBlur stdDeviation="2"/><feColorMatrix values="0 0 0 0 0 0 0 0 0 0 0 0 0 0 0 0 0 0 0.25 0"/><feBlend in2="BackgroundImageFix" result="effect1_dropShadow"/><feBlend in="SourceGraphic" in2="effect1_dropShadow" result="shape"/></filter></defs></svg>