<svg width="175" height="278" fill="none" xmlns="http://www.w3.org/2000/svg"><path d="M84.624 277.986a2.843 2.843 0 002.865-2.862v-1.464a2.842 2.842 0 00-2.865-2.862 2.842 2.842 0 00-2.865 2.862v1.464a2.843 2.843 0 002.865 2.862zm0-15.907a2.843 2.843 0 002.865-2.862v-1.465a2.843 2.843 0 00-2.865-2.862 2.843 2.843 0 00-2.865 2.862v1.465a2.843 2.843 0 002.865 2.862zm0-15.908a2.842 2.842 0 002.865-2.862v-1.464a2.843 2.843 0 00-2.865-2.862 2.843 2.843 0 00-2.865 2.862v1.464a2.842 2.842 0 002.865 2.862zm0-15.907a2.843 2.843 0 002.865-2.862v-1.464a2.842 2.842 0 00-2.865-2.862 2.842 2.842 0 00-2.865 2.862v1.464a2.843 2.843 0 002.865 2.862zm0-15.907a2.843 2.843 0 002.865-2.862v-1.465a2.843 2.843 0 00-2.865-2.862 2.843 2.843 0 00-2.865 2.862v1.465c0 1.531 1.266 2.862 2.865 2.862z" fill="#FF984E"/><path d="M27.853 151.393H85.69v44.327l-57.837-44.327z" fill="#FFCCA8"/><path d="M87.356 174.955c48.242 0 87.356-39.07 87.356-87.258C174.712 39.51 135.598.44 87.356.44S0 39.51 0 87.698c0 48.187 39.114 87.257 87.356 87.257z" fill="#FF984E"/><path d="M86.756 154.388c-36.763 0-66.566-29.769-66.566-66.49 0-36.723 29.803-66.492 66.566-66.492 36.764 0 66.566 29.77 66.566 66.491 0 36.722-29.802 66.491-66.566 66.491z" fill="#53576B"/><path d="M87.356 156.718c-38.383 0-69.498-31.08-69.498-69.42 0-38.339 31.115-69.42 69.498-69.42 38.383 0 69.498 31.081 69.498 69.42 0 38.34-31.115 69.42-69.498 69.42z" fill="url(#paint0_linear)"/><path d="M89.778 111.013l11.246-11.246a1 1 0 011.279-.113l17.898 12.482c.51.356.575 1.087.135 1.528l-6.898 6.897c-.71.71-1.725 1.017-2.698.768-5.347-1.364-23.377-6.812-37.758-21.193C58.6 85.754 53.152 67.724 51.788 62.378c-.249-.974.058-1.99.768-2.7l6.898-6.897a1 1 0 011.527.135l12.482 17.898a1 1 0 01-.113 1.28L62.104 83.338" stroke="#252525" stroke-width="5" stroke-linecap="round"/><path d="M87.356 157.916c38.98 0 70.631-31.682 70.631-70.551 0-38.937-31.718-70.551-70.631-70.551-38.98 0-70.631 31.68-70.631 70.55s31.65 70.552 70.63 70.552zm0-138.906c37.714 0 68.365 30.616 68.365 68.288s-30.651 68.288-68.365 68.288S18.99 124.97 18.99 87.298C18.924 49.626 49.642 19.01 87.356 19.01z" fill="url(#paint1_linear)"/><defs><linearGradient id="paint0_linear" x1="136.1" y1="38.617" x2="39.8" y2="135.025" gradientUnits="userSpaceOnUse"><stop stop-color="#E2E1E6"/><stop offset=".845" stop-color="#fff"/></linearGradient><linearGradient id="paint1_linear" x1="137.282" y1="37.436" x2="37.524" y2="137.307" gradientUnits="userSpaceOnUse"><stop stop-color="#fff"/><stop offset="1" stop-color="#E6E6E6"/></linearGradient></defs></svg>