<svg width="176" height="278" fill="none" xmlns="http://www.w3.org/2000/svg"><path d="M85.047 277.986c1.6 0 2.865-1.265 2.865-2.862v-1.464a2.842 2.842 0 00-2.865-2.862 2.842 2.842 0 00-2.865 2.862v1.464a2.843 2.843 0 002.865 2.862zm0-15.907c1.6 0 2.865-1.265 2.865-2.862v-1.465a2.843 2.843 0 00-2.865-2.862 2.843 2.843 0 00-2.865 2.862v1.465a2.843 2.843 0 002.865 2.862zm0-15.908c1.6 0 2.865-1.264 2.865-2.862v-1.464a2.843 2.843 0 00-2.865-2.862 2.843 2.843 0 00-2.865 2.862v1.464a2.842 2.842 0 002.865 2.862zm0-15.907c1.6 0 2.865-1.265 2.865-2.862v-1.464a2.842 2.842 0 00-2.865-2.862 2.842 2.842 0 00-2.865 2.862v1.464a2.843 2.843 0 002.865 2.862zm0-15.907c1.6 0 2.865-1.265 2.865-2.862v-1.465a2.843 2.843 0 00-2.865-2.862 2.843 2.843 0 00-2.865 2.862v1.465c0 1.531 1.266 2.862 2.865 2.862z" fill="#FF984E"/><path d="M28.276 151.393h57.837v44.327l-57.837-44.327z" fill="#FFCCA8"/><path d="M87.779 174.955c48.242 0 87.356-39.07 87.356-87.258C175.135 39.51 136.021.44 87.779.44S.423 39.51.423 87.698c0 48.187 39.114 87.257 87.356 87.257z" fill="#FF984E"/><path d="M87.18 154.388c-36.764 0-66.567-29.769-66.567-66.49 0-36.723 29.803-66.492 66.566-66.492 36.764 0 66.567 29.77 66.567 66.491 0 36.722-29.803 66.491-66.567 66.491z" fill="#53576B"/><path d="M87.779 156.718c-38.383 0-69.498-31.08-69.498-69.42 0-38.339 31.115-69.42 69.498-69.42 38.383 0 69.498 31.081 69.498 69.42 0 38.34-31.115 69.42-69.498 69.42z" fill="url(#paint0_linear)"/><path clip-rule="evenodd" d="M121.298 83.4a1 1 0 010 1.798l-60.86 29.693a1 1 0 01-1.438-.898V90.809l29.805-6.514L59 77.11V54.606a1 1 0 011.438-.899l60.86 29.694z" stroke="#252525" stroke-width="4" stroke-linejoin="round"/><path d="M87.779 157.916c38.98 0 70.631-31.682 70.631-70.551 0-38.937-31.717-70.551-70.631-70.551-38.98 0-70.63 31.68-70.63 70.55s31.65 70.552 70.63 70.552zm0-138.906c37.714 0 68.365 30.616 68.365 68.288s-30.651 68.288-68.365 68.288-68.365-30.616-68.365-68.288c-.067-37.672 30.65-68.288 68.365-68.288z" fill="url(#paint1_linear)"/><defs><linearGradient id="paint0_linear" x1="136.523" y1="38.617" x2="40.224" y2="135.025" gradientUnits="userSpaceOnUse"><stop stop-color="#E2E1E6"/><stop offset=".845" stop-color="#fff"/></linearGradient><linearGradient id="paint1_linear" x1="137.705" y1="37.436" x2="37.947" y2="137.307" gradientUnits="userSpaceOnUse"><stop stop-color="#fff"/><stop offset="1" stop-color="#E6E6E6"/></linearGradient></defs></svg>